<?xml version="1.0" standalone="no"?>
<!DOCTYPE svg PUBLIC "-//W3C//DTD SVG 20010904//EN"
 "http://www.w3.org/TR/2001/REC-SVG-20010904/DTD/svg10.dtd">
<svg version="1.0" xmlns="http://www.w3.org/2000/svg"
 width="936.000000pt" height="645.000000pt" viewBox="0 0 936.000000 645.000000"
 preserveAspectRatio="xMidYMid meet">

<g transform="translate(0.000000,645.000000) scale(0.100000,-0.100000)"
fill="#000000" stroke="none">
<path d="M0 3225 l0 -3225 4680 0 4680 0 0 3225 0 3225 -4680 0 -4680 0 0
-3225z m4925 2395 c923 -103 1702 -723 2002 -1595 129 -376 163 -790 97 -1180
-81 -479 -316 -934 -662 -1280 -369 -372 -820 -599 -1352 -682 -159 -25 -518
-24 -678 1 -260 40 -477 108 -707 221 -483 236 -856 611 -1095 1100 -112 229
-181 452 -222 715 -21 134 -17 548 5 685 86 511 301 942 651 1302 389 402 891
649 1446 712 107 12 409 13 515 1z"/>
<path d="M4550 5533 c-224 -16 -395 -49 -595 -114 -491 -161 -915 -486 -1197
-919 -224 -343 -356 -751 -370 -1145 l-3 -80 253 -3 252 -2 0 -44 c0 -31 -5
-46 -16 -50 -9 -3 -120 -6 -248 -6 -128 0 -235 -2 -237 -4 -9 -9 11 -210 31
-325 70 -390 234 -743 491 -1056 71 -87 251 -263 344 -337 291 -231 651 -391
1034 -460 145 -25 468 -36 621 -19 528 58 1005 286 1380 661 394 393 623 894
666 1454 6 70 4 86 -7 86 -8 1 -117 1 -244 0 -126 0 -236 4 -243 8 -8 6 -12
24 -10 48 l3 39 253 3 252 2 0 61 c0 168 -48 435 -116 638 -265 799 -959 1395
-1789 1535 -158 27 -367 39 -505 29z m130 -428 c12 -30 26 -55 29 -55 4 0 18
24 32 53 23 50 25 52 64 52 l40 0 0 -125 0 -125 -30 0 c-30 0 -30 1 -35 65
l-5 65 -22 -52 c-18 -44 -26 -53 -47 -53 -16 0 -27 7 -32 22 -3 12 -14 37 -23
57 l-16 36 -5 -70 c-5 -67 -6 -70 -31 -73 -15 -2 -29 3 -32 10 -2 7 -2 66 1
131 l5 117 42 0 c42 0 43 0 65 -55z m-210 38 c0 -5 7 -46 15 -92 12 -71 12
-88 0 -116 -32 -79 -156 -87 -195 -14 -17 30 -41 182 -31 192 5 5 19 7 32 5
21 -3 25 -11 37 -83 15 -90 25 -107 60 -103 41 5 47 27 33 118 -12 70 -12 83
0 91 17 11 49 12 49 2z m713 -55 c15 -12 15 -20 -7 -106 -14 -52 -32 -102 -42
-113 -34 -38 -134 -15 -134 32 0 25 22 34 50 19 28 -15 46 0 54 45 13 69 37
135 49 135 7 0 21 -6 30 -12z m-1035 -34 c45 -31 19 -59 -48 -48 -24 4 -40 2
-45 -6 -11 -18 0 -23 66 -31 71 -8 99 -29 99 -74 0 -75 -122 -121 -182 -67
-10 8 -18 21 -18 27 0 18 49 28 66 14 11 -9 21 -9 40 0 41 18 23 35 -47 43
-86 10 -120 50 -89 108 24 45 114 65 158 34z m1181 -13 c22 -14 -57 -235 -86
-239 -42 -6 -43 18 -1 136 41 113 51 126 87 103z m148 -63 c9 -8 4 -27 -22
-79 -43 -84 -45 -116 -9 -129 35 -14 48 -2 86 74 42 84 45 87 74 74 13 -6 24
-16 24 -22 0 -23 -86 -160 -112 -179 -33 -25 -84 -17 -127 19 -46 38 -48 73
-11 152 53 115 58 119 97 90z m-1570 -44 c22 -22 24 -31 19 -68 -6 -41 -6 -42
34 -65 22 -12 40 -26 40 -31 0 -5 -13 -16 -28 -24 -27 -14 -31 -13 -73 14 -50
34 -68 26 -45 -18 21 -41 20 -47 -9 -60 -23 -11 -26 -8 -80 95 -30 59 -54 111
-52 116 5 16 111 67 140 67 17 0 38 -10 54 -26z m-271 -111 c12 -16 8 -22 -28
-54 -36 -32 -40 -39 -29 -52 11 -15 17 -13 52 10 38 25 41 25 57 9 16 -16 15
-19 -22 -51 -34 -28 -38 -36 -27 -49 12 -14 18 -12 56 14 43 30 66 26 64 -9 0
-15 -110 -101 -127 -101 -10 1 -142 186 -142 199 0 10 115 101 127 101 3 0 12
-8 19 -17z m2259 -107 c17 -12 18 -17 6 -39 -26 -49 -135 -157 -158 -157 -24
0 -93 55 -93 73 0 6 7 19 16 29 16 17 18 17 40 -7 13 -14 28 -25 33 -25 6 0
36 32 67 70 31 39 59 70 63 70 4 0 16 -6 26 -14z m-2412 -143 l57 -117 -23
-24 -24 -24 -54 27 c-30 15 -82 43 -117 62 l-63 35 22 24 22 23 73 -40 c41
-23 74 -38 74 -34 0 4 -17 38 -37 75 -37 67 -37 69 -19 89 11 12 22 21 26 21
3 0 32 -53 63 -117z m2527 42 c17 -20 14 -24 -68 -114 -73 -81 -98 -94 -122
-66 -10 12 2 30 70 105 46 49 88 90 95 90 7 0 18 -7 25 -15z m-1180 -90 c0 -8
11 -17 25 -21 26 -6 32 -18 15 -29 -5 -3 -10 -19 -10 -35 0 -27 -2 -29 -24
-19 -17 8 -29 8 -45 0 -19 -11 -21 -9 -21 18 0 16 -4 33 -10 36 -17 10 -11 23
14 29 13 3 26 15 29 27 6 22 27 17 27 -6z m-310 -5 c6 -11 20 -20 30 -20 24 0
26 -13 5 -30 -10 -8 -13 -21 -8 -38 5 -22 4 -24 -13 -17 -24 9 -34 9 -56 0
-15 -6 -18 -2 -18 23 0 18 -6 32 -16 36 -20 8 -8 26 18 26 11 0 22 8 25 20 3
11 9 20 14 20 4 0 13 -9 19 -20z m1629 -59 c57 -71 60 -76 44 -93 -16 -18 -18
-17 -44 8 l-28 27 -77 -63 -77 -64 -19 24 -20 24 29 26 c16 14 50 43 77 65
l48 40 -22 28 c-18 23 -20 30 -9 43 19 23 33 14 98 -65z m-991 -29 c26 -4 29
-17 6 -26 -10 -4 -14 -16 -12 -33 2 -21 -1 -27 -12 -24 -22 6 -43 5 -62 -4
-15 -6 -17 -3 -12 23 4 21 2 31 -10 35 -22 9 -20 27 3 27 10 0 26 12 36 26
l17 26 12 -23 c6 -13 22 -25 34 -27z m-1850 -33 c48 -40 88 -77 90 -83 1 -6
-4 -20 -12 -31 -10 -14 -17 -17 -27 -9 -89 69 -179 148 -179 158 0 14 20 36
33 36 5 0 47 -32 95 -71z m952 21 c24 0 26 -13 4 -31 -10 -8 -13 -21 -9 -37 5
-21 3 -23 -12 -17 -20 9 -41 10 -63 4 -11 -3 -14 3 -12 24 2 17 -2 29 -12 33
-22 9 -20 24 4 24 11 0 27 12 37 26 l16 26 14 -26 c8 -15 22 -26 33 -26z
m-1024 -146 c46 -30 84 -60 84 -68 0 -30 -35 -45 -115 -48 l-80 -3 58 -38 c50
-32 56 -40 47 -57 -5 -10 -14 -21 -19 -24 -11 -7 -211 115 -211 129 0 6 7 21
16 33 13 19 24 22 90 22 41 0 74 3 74 8 0 4 -20 20 -45 35 -56 36 -58 39 -39
65 18 26 15 27 140 -54z m2175 26 c25 0 35 -21 15 -32 -13 -7 -16 -17 -11 -39
6 -28 6 -29 -18 -18 -18 8 -30 8 -46 0 -19 -11 -21 -9 -21 15 0 15 -7 35 -16
45 -15 17 -14 19 10 25 15 3 32 16 38 27 l11 22 10 -23 c6 -12 18 -22 28 -22z
m-1441 0 c6 -11 20 -20 30 -20 24 0 26 -13 5 -30 -9 -8 -13 -21 -9 -36 7 -27
2 -29 -28 -13 -14 8 -23 8 -31 0 -18 -18 -27 -12 -27 18 0 16 -6 31 -15 35
-24 9 -18 26 9 26 16 0 27 7 31 20 3 11 10 20 15 20 5 0 14 -9 20 -20z m2291
-6 c41 -21 73 -91 59 -128 -21 -55 -60 -42 -60 20 0 30 -21 60 -33 48 -3 -3
-3 -37 0 -75 7 -81 -9 -109 -61 -109 -40 0 -69 21 -90 64 -21 45 -20 79 3 107
20 24 20 24 35 4 10 -13 14 -30 10 -48 -4 -19 0 -35 11 -47 28 -31 37 -13 29
61 -8 79 7 106 64 118 2 1 17 -6 33 -15z m-651 -168 c0 -8 14 -16 32 -20 29
-6 30 -7 15 -24 -10 -10 -17 -31 -17 -45 0 -30 -3 -32 -32 -16 -14 8 -23 8
-31 0 -18 -18 -27 -13 -27 16 0 14 -7 34 -16 44 -15 17 -14 19 10 25 15 3 31
15 37 25 11 21 29 17 29 -5z m-1860 -21 c0 -8 11 -17 25 -21 26 -6 32 -18 15
-29 -5 -3 -10 -19 -10 -35 0 -27 -2 -29 -24 -19 -17 8 -29 8 -45 0 -19 -11
-21 -9 -21 18 0 16 -4 33 -10 36 -17 10 -11 23 14 29 13 3 26 15 29 27 6 22
27 17 27 -6z m-692 -78 c83 -40 107 -71 97 -123 -8 -47 -63 -104 -99 -104 -14
0 -62 15 -106 32 -67 28 -80 37 -80 56 0 35 24 37 95 8 83 -33 112 -34 127 -1
16 35 -5 55 -92 89 -68 27 -77 37 -64 71 8 21 33 15 122 -28z m3352 23 c15
-28 9 -34 -67 -65 -81 -32 -93 -41 -93 -69 0 -53 35 -57 135 -16 l70 28 13
-25 c8 -14 10 -29 5 -33 -4 -4 -45 -22 -91 -40 -68 -27 -89 -31 -115 -23 -70
20 -104 135 -54 182 23 21 150 80 174 81 7 0 17 -9 23 -20z m-630 -165 c0 -8
11 -17 25 -21 28 -7 31 -16 11 -33 -7 -6 -11 -22 -8 -36 5 -27 -7 -32 -26 -13
-9 9 -18 9 -37 0 -23 -11 -25 -10 -25 15 0 15 -7 35 -17 45 -15 17 -15 18 5
18 12 0 29 11 38 25 17 25 34 25 34 0z m-2192 -25 c7 -11 21 -20 32 -20 24 0
26 -13 4 -31 -9 -7 -14 -22 -11 -36 4 -24 -11 -31 -30 -12 -8 8 -17 8 -31 0
-29 -16 -33 -14 -27 12 4 15 1 28 -9 36 -22 18 -20 31 4 31 11 0 25 9 32 20 7
11 15 20 18 20 3 0 11 -9 18 -20z m1467 -390 c0 -396 1 -390 -71 -470 -38 -42
-106 -84 -118 -73 -3 4 -6 26 -6 49 0 36 5 47 25 60 14 9 37 36 51 59 l24 42
-2 299 -3 299 -287 3 -288 2 0 38 c0 21 3 42 7 45 4 4 155 6 337 5 l331 -3 0
-355z m866 120 c22 0 25 -16 5 -36 -8 -7 -12 -22 -9 -32 4 -17 -1 -19 -41 -18
-40 1 -46 4 -46 22 0 12 -7 27 -15 34 -18 15 -11 30 15 30 11 0 25 10 31 22
l12 22 15 -22 c8 -12 23 -22 33 -22z m-2411 -30 c23 0 26 -13 6 -29 -7 -6 -11
-22 -8 -36 5 -28 0 -30 -30 -14 -14 8 -23 8 -31 0 -18 -18 -27 -12 -27 18 0
17 -4 33 -10 36 -17 11 -11 25 10 25 13 0 24 10 31 28 l11 27 14 -27 c8 -16
23 -28 34 -28z m1275 -335 c0 -352 0 -361 -22 -401 -34 -63 -66 -97 -125 -129
-51 -29 -57 -30 -188 -30 -120 0 -140 2 -176 22 -100 53 -153 133 -162 240
l-5 64 49 -3 c46 -3 49 -5 52 -33 6 -72 15 -98 45 -132 45 -52 81 -63 196 -63
110 0 142 8 185 48 54 51 56 66 56 387 l0 295 -242 2 -243 3 -3 33 c-6 65 -21
63 295 60 l288 -3 0 -360z m-314 188 c0 -5 2 -64 3 -133 2 -105 6 -132 24
-167 23 -45 62 -78 105 -88 25 -7 27 -11 27 -57 l0 -50 -32 7 c-86 19 -173 97
-202 182 -16 47 -24 292 -9 306 9 10 83 9 84 0z m1459 -108 c6 -15 17 -25 30
-25 21 0 27 -14 10 -25 -5 -3 -10 -19 -10 -36 0 -33 -2 -34 -30 -17 -15 10
-22 10 -32 0 -19 -19 -31 -14 -26 13 3 14 -1 30 -8 36 -20 16 -17 29 6 29 12
0 25 10 32 25 6 14 13 25 15 25 2 0 8 -11 13 -25z m-2482 -30 c7 -16 20 -25
33 -25 21 0 21 -1 5 -19 -10 -11 -16 -30 -14 -43 2 -16 -1 -22 -12 -19 -8 2
-22 4 -30 4 -8 0 -22 -2 -30 -4 -11 -3 -14 3 -12 22 2 14 -4 32 -13 39 -14 12
-13 15 14 26 17 7 31 20 31 29 0 23 15 18 28 -10z m281 1 c14 -16 -1 -31 -21
-21 -7 3 -3 -2 10 -11 28 -21 29 -60 2 -69 -27 -9 -60 3 -60 22 0 10 6 14 20
10 11 -3 20 -1 20 4 0 5 -4 9 -9 9 -5 0 -17 7 -25 16 -12 12 -13 20 -6 35 12
22 52 25 69 5z m71 -41 c0 -30 -4 -55 -10 -55 -5 0 -10 25 -10 55 0 30 5 55
10 55 6 0 10 -25 10 -55z m76 34 l22 -21 7 21 c12 39 25 21 25 -34 0 -61 -15
-72 -43 -32 l-16 22 -7 -23 c-4 -13 -12 -21 -18 -19 -18 6 -17 107 2 107 3 0
16 -9 28 -21z m158 15 c9 -3 16 -13 16 -21 0 -11 -7 -13 -24 -9 -26 6 -40 -12
-30 -39 4 -10 14 -13 30 -9 30 8 34 -21 4 -31 -49 -15 -86 44 -56 90 17 25 31
30 60 19z m121 -4 c3 -6 -4 -14 -17 -19 -20 -8 -21 -10 -5 -16 21 -9 23 -25 2
-25 -23 0 -18 -17 8 -24 21 -6 21 -7 4 -17 -10 -6 -29 -8 -43 -5 -21 6 -24 12
-24 55 0 26 3 51 7 54 10 11 61 8 68 -3z m1153 -2 c17 -17 15 -47 -3 -54 -8
-4 -15 -10 -15 -15 0 -5 7 -9 15 -9 8 0 15 -4 15 -9 0 -13 -30 -21 -55 -16
-11 2 -23 4 -27 4 -5 1 -8 8 -8 16 0 14 6 21 45 51 19 15 19 15 -7 9 -20 -4
-28 -1 -28 9 0 25 47 35 68 14z m118 -13 c21 -32 11 -72 -21 -87 -21 -9 -28
-8 -45 7 -38 34 -17 105 30 105 11 0 27 -11 36 -25z m120 0 c21 -32 11 -72
-21 -87 -21 -9 -28 -8 -45 7 -38 34 -17 105 30 105 11 0 27 -11 36 -25z m111
13 c4 -7 8 -30 9 -51 2 -31 -2 -40 -21 -49 -16 -7 -29 -7 -44 1 -30 16 -27 35
4 27 25 -6 36 9 13 17 -10 3 -10 8 1 21 13 16 12 17 -12 11 -28 -8 -35 3 -15
23 16 16 55 15 65 0z m238 -278 c3 -11 15 -20 25 -20 26 0 33 -15 14 -31 -10
-8 -13 -21 -9 -36 5 -23 4 -24 -29 -18 -20 4 -36 3 -41 -4 -10 -18 -24 -3 -18
19 3 12 -2 29 -11 39 -18 20 -12 31 17 31 10 0 21 9 24 20 3 11 9 20 13 20 5
0 12 -9 15 -20z m-2410 -30 c4 -13 15 -20 31 -20 28 0 31 -12 8 -31 -10 -8
-13 -21 -9 -36 4 -16 1 -23 -9 -23 -8 0 -18 5 -21 10 -4 7 -12 7 -25 0 -27
-14 -30 -13 -30 14 0 13 -7 29 -15 36 -22 18 -18 30 9 30 16 0 27 7 31 20 3
11 10 20 15 20 5 0 12 -9 15 -20z m2343 -275 c22 -6 22 -8 8 -24 -9 -10 -16
-29 -16 -44 0 -24 -2 -26 -24 -16 -17 8 -29 8 -46 -1 -20 -11 -21 -9 -18 13 1
13 -3 31 -10 40 -16 19 -8 37 17 37 11 0 21 10 25 23 l6 22 18 -21 c9 -12 27
-25 40 -29z m-2198 -25 c24 0 26 -13 5 -30 -9 -8 -13 -21 -9 -36 7 -27 2 -29
-27 -14 -13 8 -25 7 -39 0 -18 -9 -20 -8 -20 16 0 15 -7 36 -17 46 -15 17 -15
18 5 18 12 0 29 11 39 26 l16 26 14 -26 c8 -15 22 -26 33 -26z m2030 -220 c24
0 26 -18 4 -27 -12 -4 -14 -14 -10 -35 5 -26 3 -29 -12 -23 -9 5 -24 8 -32 8
-8 0 -23 -3 -32 -8 -16 -6 -17 -3 -12 24 5 23 2 32 -10 37 -22 9 -20 24 4 24
11 0 27 12 37 26 l16 26 14 -26 c8 -15 22 -26 33 -26z m-2435 -5 l19 -34 -69
-73 c-38 -40 -79 -84 -91 -97 l-22 -23 -17 25 c-13 21 -14 29 -4 46 11 17 10
26 -4 55 -14 30 -22 36 -47 36 -23 0 -31 5 -36 25 -4 14 -5 27 -3 29 5 3 217
43 240 45 9 0 24 -15 34 -34z m575 -15 c24 0 26 -13 5 -30 -9 -8 -13 -21 -9
-36 7 -27 2 -29 -27 -14 -13 8 -25 7 -39 0 -18 -9 -20 -8 -20 16 0 15 -7 36
-17 46 -15 17 -15 18 5 18 12 0 29 11 39 26 l16 26 14 -26 c8 -15 22 -26 33
-26z m2422 -10 c40 -22 78 -40 84 -40 6 0 18 16 27 35 17 36 31 42 57 25 12
-8 9 -19 -20 -74 -19 -36 -40 -66 -46 -66 -20 0 -205 102 -211 116 -5 15 13
44 28 44 4 0 41 -18 81 -40z m-39 -126 c38 -25 67 -74 67 -112 0 -31 -42 -86
-80 -104 -48 -24 -102 -9 -152 42 -31 31 -38 45 -38 76 0 77 67 141 135 129
16 -3 47 -17 68 -31z m-2859 -8 c15 -24 14 -25 -54 -81 -72 -57 -83 -80 -54
-109 25 -26 45 -19 113 36 50 40 67 49 80 41 31 -20 17 -46 -53 -100 -56 -44
-75 -53 -108 -53 -73 0 -129 85 -102 155 7 16 143 135 155 135 4 0 14 -11 23
-24z m2086 -12 c0 -8 9 -14 19 -14 27 0 35 -17 18 -35 -8 -8 -12 -25 -9 -40 4
-24 3 -25 -21 -14 -18 8 -30 8 -46 0 -19 -11 -21 -9 -21 15 0 15 -7 35 -16 45
-15 17 -14 19 10 25 15 3 31 15 37 25 11 21 29 17 29 -7z m-1420 -14 c6 -11
20 -20 30 -20 24 0 26 -13 5 -30 -10 -8 -13 -21 -8 -38 5 -22 4 -24 -13 -17
-24 9 -34 9 -56 0 -15 -6 -18 -2 -18 23 0 17 -4 34 -10 37 -17 11 -11 25 11
25 12 0 23 8 26 20 3 11 9 20 14 20 4 0 13 -9 19 -20z m1160 -125 c0 -8 11
-17 25 -21 28 -7 31 -16 11 -33 -7 -6 -11 -22 -8 -36 5 -27 -7 -32 -26 -13 -9
9 -18 9 -37 0 -24 -11 -25 -10 -25 18 0 16 -4 32 -10 35 -15 9 -12 25 5 25 8
0 22 11 31 25 17 25 34 25 34 0z m-858 -35 c20 0 20 -1 5 -18 -10 -10 -17 -30
-17 -45 0 -25 -2 -26 -25 -15 -19 9 -28 9 -37 0 -19 -19 -31 -14 -26 13 3 14
-1 30 -8 36 -20 17 -17 26 10 33 14 3 28 16 32 28 6 22 7 21 26 -5 11 -15 29
-27 40 -27z m-752 -59 c66 -60 73 -70 61 -85 -18 -21 -34 -20 -56 4 -19 21
-19 20 -92 -52 l-73 -72 -22 21 -22 22 67 70 c37 38 67 74 67 80 0 6 -9 15
-20 21 -11 6 -20 16 -20 23 0 13 19 37 30 37 3 0 39 -31 80 -69z m2413 55 c18
-7 47 -30 65 -50 26 -30 32 -45 32 -81 0 -84 -86 -146 -161 -115 -47 20 -99
87 -99 129 0 47 29 93 71 114 42 20 51 21 92 3z m-1373 -66 c24 0 26 -13 4
-31 -10 -8 -13 -21 -9 -37 5 -21 3 -23 -12 -17 -20 9 -41 10 -63 4 -11 -3 -14
3 -12 19 2 13 -4 32 -14 43 -16 18 -16 19 4 19 12 0 29 11 39 26 l16 26 14
-26 c8 -15 22 -26 33 -26z m280 24 c0 -8 10 -14 25 -14 28 0 32 -12 10 -30
-11 -9 -14 -22 -10 -42 7 -28 6 -28 -20 -16 -21 9 -31 9 -46 0 -17 -11 -19 -9
-19 17 0 16 -7 34 -15 41 -18 15 -11 30 15 30 11 0 24 9 30 20 12 22 30 18 30
-6z m-1180 -148 c0 -6 -9 -22 -20 -36 -27 -34 -25 -42 14 -67 l34 -22 27 35
c28 36 51 41 68 14 7 -12 -7 -39 -58 -113 -37 -53 -71 -97 -74 -97 -4 0 -16 7
-27 15 -19 14 -19 15 5 56 l24 43 -29 23 c-29 23 -54 30 -54 16 -1 -5 -11 -21
-24 -37 -20 -24 -26 -27 -45 -17 -11 7 -21 16 -21 22 0 11 66 112 113 172 28
36 30 37 48 21 11 -9 19 -22 19 -28z m2104 -61 c36 -51 66 -97 66 -102 0 -4
-10 -14 -22 -22 -20 -12 -24 -11 -45 15 -13 16 -23 32 -23 37 0 15 -30 6 -57
-17 -30 -26 -30 -23 8 -83 12 -20 11 -24 -6 -37 -11 -9 -23 -16 -27 -16 -10 0
-138 187 -138 202 0 7 9 19 20 25 17 11 22 8 46 -22 31 -41 40 -42 78 -12 l29
24 -27 39 -27 39 22 17 c11 10 25 16 29 13 5 -3 38 -48 74 -100z m-1832 -86
c49 -23 68 -37 68 -51 0 -28 -26 -33 -70 -13 -21 9 -43 14 -49 11 -22 -14 -10
-33 29 -51 26 -12 40 -25 40 -37 0 -27 -27 -33 -67 -14 -19 9 -39 14 -44 11
-20 -13 -7 -34 31 -51 39 -17 48 -36 31 -62 -6 -11 -23 -6 -80 22 -39 20 -71
42 -71 50 0 17 98 216 106 216 4 0 38 -14 76 -31z m1542 0 c25 -20 26 -23 11
-38 -9 -10 -33 -16 -58 -16 -36 0 -42 -3 -45 -24 -5 -34 4 -63 28 -89 29 -31
59 -28 73 7 10 29 49 56 61 44 11 -11 6 -69 -6 -85 -63 -77 -165 -60 -209 36
-35 77 -20 134 45 166 52 25 67 25 100 -1z m-1352 -92 c4 -6 15 -39 25 -74 10
-35 21 -63 25 -63 4 0 15 25 23 55 17 56 32 66 64 46 13 -8 10 -27 -20 -123
-34 -111 -35 -113 -64 -113 -29 0 -31 4 -54 78 -14 42 -27 77 -31 77 -3 0 -14
-26 -25 -57 -18 -51 -23 -58 -44 -55 -14 1 -27 5 -30 7 -4 5 56 220 66 238 7
11 56 -1 65 -16z m1096 -3 c12 -8 22 -22 22 -30 0 -20 -40 -34 -61 -21 -21 13
-49 3 -49 -18 0 -11 11 -15 38 -16 89 -1 134 -40 118 -102 -7 -31 -69 -67
-114 -67 -32 0 -82 33 -82 55 0 18 39 26 63 14 24 -13 67 -3 67 15 0 15 -30
26 -73 26 -41 0 -84 26 -91 55 -18 70 98 134 162 89z m-825 -54 c115 -17 117
-18 117 -45 0 -20 -5 -24 -37 -27 l-38 -3 -12 -80 c-6 -44 -12 -86 -12 -92 -1
-8 -14 -13 -32 -13 l-32 0 8 73 c14 124 13 132 -15 135 -14 2 -29 7 -33 12 -9
8 -1 50 9 50 3 0 38 -5 77 -10z m466 -26 c34 -28 39 -49 15 -58 -24 -9 -54 -7
-54 3 0 16 -40 23 -55 11 -17 -14 -20 -92 -5 -121 14 -26 56 -25 70 2 8 14 19
19 38 17 38 -4 39 -32 4 -68 -25 -24 -39 -30 -74 -30 -75 0 -118 52 -118 140
0 108 103 168 179 104z m-246 -1 c2 -5 2 -62 -2 -128 l-6 -120 -27 -3 c-18 -2
-28 2 -29 10 -2 40 3 234 7 240 7 10 51 10 57 1z"/>
<path d="M3806 4887 c-15 -11 -17 -17 -7 -35 14 -26 30 -28 57 -8 15 12 17 18
8 33 -14 23 -35 27 -58 10z"/>
<path d="M5374 3245 c-7 -18 2 -45 15 -45 12 0 24 37 16 50 -9 15 -25 12 -31
-5z"/>
<path d="M5494 3245 c-7 -18 2 -45 15 -45 13 0 22 27 15 45 -4 8 -10 15 -15
15 -5 0 -12 -7 -15 -15z"/>
<path d="M3083 2392 c-10 -7 -10 -12 0 -26 12 -16 14 -15 36 8 l24 26 -24 0
c-13 0 -30 -4 -36 -8z"/>
<path d="M6056 2244 c-23 -22 -20 -51 8 -79 29 -29 73 -42 95 -28 9 6 17 24
19 40 6 57 -83 106 -122 67z"/>
<path d="M5866 2024 c-31 -31 -10 -81 45 -110 28 -14 33 -14 55 1 33 21 31 59
-5 96 -33 32 -71 38 -95 13z"/>
</g>
</svg>
