<?xml version="1.0" encoding="UTF-8"?>
<svg xmlns="http://www.w3.org/2000/svg" xmlns:xlink="http://www.w3.org/1999/xlink" width="708.6614pt" height="992.126pt" viewBox="0 0 708.6614 992.126" version="1.1">
<g id="surface1">
<path style=" stroke:none;fill-rule:evenodd;fill:rgb(10.978699%,10.5896%,9.01947%);fill-opacity:1;" d="M 73.386719 304.328125 L 633.917969 304.328125 L 634.972656 687.832031 L 74.445313 687.832031 Z M 102.890625 404.445313 L 619.648438 404.445313 L 619.648438 587.714844 L 87.683594 587.714844 L 87.683594 404.445313 Z M 102.890625 404.445313 "/>
<path style=" stroke:none;fill-rule:nonzero;fill:rgb(99.609375%,99.609375%,99.609375%);fill-opacity:1;" d="M 495.433594 343.023438 C 495.433594 344.621094 495.085938 346.019531 494.390625 347.21875 C 493.695313 348.417969 492.769531 349.425781 491.601563 350.238281 C 490.429688 351.050781 489.097656 351.664063 487.578125 352.078125 C 486.0625 352.492188 484.507813 352.699219 482.894531 352.699219 C 481.28125 352.699219 479.726563 352.5 478.207031 352.097656 C 476.699219 351.699219 475.363281 351.101563 474.210938 350.300781 C 473.058594 349.503906 472.140625 348.511719 471.445313 347.324219 C 470.75 346.140625 470.402344 344.75 470.402344 343.152344 L 470.402344 322.898438 L 476.898438 322.898438 L 476.898438 342.074219 C 476.898438 343.042969 477.070313 343.863281 477.417969 344.535156 C 477.765625 345.207031 478.21875 345.761719 478.785156 346.191406 C 479.355469 346.621094 479.996094 346.933594 480.722656 347.132813 C 481.449219 347.332031 482.183594 347.433594 482.941406 347.433594 C 483.667969 347.433594 484.386719 347.332031 485.113281 347.132813 C 485.839844 346.933594 486.480469 346.621094 487.050781 346.191406 C 487.617188 345.761719 488.070313 345.207031 488.417969 344.535156 C 488.765625 343.863281 488.9375 343.042969 488.9375 342.074219 L 488.9375 322.898438 L 495.433594 322.898438 Z M 453.871094 343.878906 C 453.871094 345.304688 453.554688 346.570313 452.925781 347.667969 C 452.292969 348.765625 451.414063 349.679688 450.292969 350.410156 C 449.171875 351.136719 447.851563 351.6875 446.335938 352.058594 C 444.816406 352.429688 443.175781 352.613281 441.40625 352.613281 C 439.035156 352.613281 436.808594 352.3125 434.722656 351.714844 C 432.632813 351.113281 430.597656 350.058594 428.605469 348.546875 L 432.253906 344.265625 C 433.675781 345.261719 435.15625 346.027344 436.6875 346.554688 C 438.222656 347.082031 439.746094 347.347656 441.261719 347.347656 C 442.304688 347.347656 443.191406 347.253906 443.917969 347.070313 C 444.644531 346.882813 445.230469 346.625 445.671875 346.296875 C 446.113281 345.96875 446.4375 345.597656 446.644531 345.183594 C 446.847656 344.769531 446.953125 344.351563 446.953125 343.921875 C 446.953125 343.265625 446.769531 342.722656 446.40625 342.296875 C 446.042969 341.867188 445.519531 341.503906 444.84375 341.203125 C 444.160156 340.902344 443.355469 340.632813 442.421875 340.390625 C 441.492188 340.148438 440.457031 339.882813 439.320313 339.597656 C 438.054688 339.3125 436.847656 338.960938 435.691406 338.546875 C 434.539063 338.132813 433.519531 337.605469 432.632813 336.964844 C 431.75 336.320313 431.046875 335.535156 430.527344 334.609375 C 430.003906 333.683594 429.742188 332.5625 429.742188 331.25 C 429.742188 329.964844 430.011719 328.777344 430.539063 327.695313 C 431.078125 326.609375 431.820313 325.675781 432.777344 324.890625 C 433.734375 324.105469 434.902344 323.492188 436.269531 323.050781 C 437.636719 322.605469 439.160156 322.386719 440.835938 322.386719 C 442.828125 322.355469 444.816406 322.527344 446.808594 322.898438 C 448.800781 323.269531 450.726563 324.011719 452.59375 325.125 L 449.746094 329.835938 C 448.230469 329.007813 446.792969 328.4375 445.433594 328.121094 C 444.074219 327.808594 442.730469 327.652344 441.40625 327.652344 C 440.773438 327.652344 440.148438 327.722656 439.53125 327.867188 C 438.914063 328.007813 438.363281 328.214844 437.875 328.488281 C 437.382813 328.757813 436.988281 329.113281 436.6875 329.558594 C 436.386719 330 436.238281 330.519531 436.238281 331.121094 C 436.238281 331.71875 436.402344 332.226563 436.734375 332.640625 C 437.066406 333.054688 437.550781 333.410156 438.1875 333.710938 C 438.820313 334.011719 439.585938 334.273438 440.488281 334.503906 C 441.398438 334.730469 442.417969 334.960938 443.5625 335.1875 C 447.015625 335.871094 449.597656 336.914063 451.304688 338.3125 C 453.019531 339.710938 453.871094 341.566406 453.871094 343.878906 Z M 405.722656 328.164063 L 405.722656 352.398438 L 399.226563 352.398438 L 399.226563 328.164063 L 390.550781 328.164063 L 390.550781 322.898438 L 414.351563 322.898438 L 414.351563 328.164063 Z M 374.023438 322.898438 L 374.023438 352.398438 L 367.527344 352.398438 L 367.527344 322.898438 Z M 348.152344 343.152344 C 348.152344 344.75 347.828125 346.140625 347.191406 347.324219 C 346.542969 348.511719 345.6875 349.496094 344.621094 350.28125 C 343.554688 351.066406 342.324219 351.65625 340.917969 352.058594 C 339.519531 352.457031 338.074219 352.65625 336.585938 352.65625 C 334.753906 352.65625 332.929688 352.433594 331.113281 352 C 329.292969 351.558594 327.769531 350.886719 326.535156 349.980469 L 329.570313 345.464844 C 330.675781 346.207031 331.734375 346.710938 332.746094 346.984375 C 333.757813 347.253906 334.753906 347.390625 335.734375 347.390625 C 336.585938 347.390625 337.378906 347.296875 338.105469 347.113281 C 338.832031 346.925781 339.457031 346.613281 339.976563 346.167969 C 340.496094 345.726563 340.910156 345.140625 341.210938 344.429688 C 341.507813 343.714844 341.660156 342.828125 341.660156 341.773438 L 341.660156 322.898438 L 348.152344 322.898438 Z M 304.15625 343.023438 C 304.15625 344.621094 303.808594 346.019531 303.113281 347.21875 C 302.417969 348.417969 301.496094 349.425781 300.324219 350.238281 C 299.15625 351.050781 297.820313 351.664063 296.304688 352.078125 C 294.785156 352.492188 293.230469 352.699219 291.617188 352.699219 C 290.007813 352.699219 288.449219 352.5 286.933594 352.097656 C 285.421875 351.699219 284.089844 351.101563 282.933594 350.300781 C 281.78125 349.503906 280.863281 348.511719 280.167969 347.324219 C 279.472656 346.140625 279.125 344.75 279.125 343.152344 L 279.125 322.898438 L 285.621094 322.898438 L 285.621094 342.074219 C 285.621094 343.042969 285.792969 343.863281 286.144531 344.535156 C 286.488281 345.207031 286.941406 345.761719 287.507813 346.191406 C 288.078125 346.621094 288.71875 346.933594 289.445313 347.132813 C 290.171875 347.332031 290.90625 347.433594 291.664063 347.433594 C 292.390625 347.433594 293.113281 347.332031 293.839844 347.132813 C 294.566406 346.933594 295.207031 346.621094 295.773438 346.191406 C 296.34375 345.761719 296.792969 345.207031 297.140625 344.535156 C 297.488281 343.863281 297.664063 343.042969 297.664063 342.074219 L 297.664063 322.898438 L 304.15625 322.898438 Z M 260.417969 322.898438 L 260.417969 352.398438 L 253.921875 352.398438 L 253.921875 322.898438 Z M 234.546875 343.152344 C 234.546875 344.75 234.222656 346.140625 233.582031 347.324219 C 232.933594 348.511719 232.082031 349.496094 231.015625 350.28125 C 229.949219 351.066406 228.714844 351.65625 227.308594 352.058594 C 225.910156 352.457031 224.464844 352.65625 222.980469 352.65625 C 221.148438 352.65625 219.320313 352.433594 217.503906 352 C 215.6875 351.558594 214.164063 350.886719 212.929688 349.980469 L 215.964844 345.464844 C 217.070313 346.207031 218.128906 346.710938 219.140625 346.984375 C 220.152344 347.253906 221.148438 347.390625 222.125 347.390625 C 222.980469 347.390625 223.769531 347.296875 224.496094 347.113281 C 225.222656 346.925781 225.847656 346.613281 226.371094 346.167969 C 226.890625 345.726563 227.300781 345.140625 227.601563 344.429688 C 227.902344 343.714844 228.050781 342.828125 228.050781 341.773438 L 228.050781 322.898438 L 234.546875 322.898438 Z M 234.546875 343.152344 "/>
<path style=" stroke:none;fill-rule:nonzero;fill:rgb(99.609375%,99.609375%,99.609375%);fill-opacity:1;" d="M 521.84375 378.480469 L 518.820313 383.917969 L 515.128906 390.253906 L 510.453125 390.253906 L 506.808594 384.046875 L 503.640625 378.480469 L 503.453125 378.480469 L 503.453125 394.320313 L 496.957031 394.320313 L 496.957031 364.820313 L 502.929688 364.820313 L 508.761719 375.226563 L 512.695313 382.503906 L 512.980469 382.503906 L 516.960938 375.054688 L 522.554688 364.820313 L 528.53125 364.820313 L 528.53125 394.320313 L 522.035156 394.320313 L 522.035156 378.480469 Z M 479.195313 384.945313 C 479.195313 386.542969 478.847656 387.941406 478.152344 389.140625 C 477.457031 390.339844 476.53125 391.347656 475.363281 392.160156 C 474.191406 392.972656 472.859375 393.585938 471.339844 394 C 469.824219 394.414063 468.269531 394.621094 466.65625 394.621094 C 465.042969 394.621094 463.488281 394.421875 461.96875 394.023438 C 460.460938 393.621094 459.125 393.023438 457.972656 392.222656 C 456.820313 391.425781 455.902344 390.433594 455.207031 389.246094 C 454.511719 388.0625 454.164063 386.671875 454.164063 385.074219 L 454.164063 364.820313 L 460.660156 364.820313 L 460.660156 383.996094 C 460.660156 384.964844 460.832031 385.785156 461.179688 386.457031 C 461.527344 387.128906 461.976563 387.683594 462.546875 388.113281 C 463.117188 388.542969 463.757813 388.855469 464.484375 389.054688 C 465.210938 389.253906 465.945313 389.355469 466.703125 389.355469 C 467.429688 389.355469 468.148438 389.253906 468.875 389.054688 C 469.601563 388.855469 470.242188 388.542969 470.8125 388.113281 C 471.378906 387.683594 471.832031 387.128906 472.179688 386.457031 C 472.527344 385.785156 472.699219 384.964844 472.699219 383.996094 L 472.699219 364.820313 L 479.195313 364.820313 Z M 437.632813 385.800781 C 437.632813 387.226563 437.320313 388.492188 436.6875 389.589844 C 436.054688 390.6875 435.175781 391.601563 434.054688 392.332031 C 432.933594 393.058594 431.613281 393.609375 430.097656 393.980469 C 428.578125 394.351563 426.9375 394.535156 425.167969 394.535156 C 422.796875 394.535156 420.566406 394.234375 418.480469 393.636719 C 416.394531 393.035156 414.359375 391.980469 412.367188 390.46875 L 416.015625 386.1875 C 417.4375 387.183594 418.917969 387.949219 420.449219 388.476563 C 421.980469 389.003906 423.507813 389.269531 425.023438 389.269531 C 426.066406 389.269531 426.953125 389.175781 427.679688 388.992188 C 428.40625 388.804688 428.992188 388.546875 429.433594 388.21875 C 429.875 387.890625 430.199219 387.519531 430.40625 387.105469 C 430.609375 386.691406 430.714844 386.273438 430.714844 385.84375 C 430.714844 385.1875 430.53125 384.644531 430.167969 384.21875 C 429.804688 383.789063 429.28125 383.425781 428.601563 383.125 C 427.925781 382.824219 427.117188 382.554688 426.1875 382.3125 C 425.253906 382.070313 424.21875 381.804688 423.082031 381.519531 C 421.816406 381.234375 420.609375 380.882813 419.453125 380.46875 C 418.300781 380.054688 417.28125 379.527344 416.394531 378.886719 C 415.511719 378.242188 414.808594 377.460938 414.285156 376.53125 C 413.765625 375.605469 413.503906 374.484375 413.503906 373.171875 C 413.503906 371.886719 413.773438 370.699219 414.300781 369.617188 C 414.839844 368.53125 415.582031 367.597656 416.539063 366.8125 C 417.496094 366.027344 418.664063 365.414063 420.03125 364.972656 C 421.398438 364.527344 422.921875 364.308594 424.597656 364.308594 C 426.589844 364.277344 428.578125 364.449219 430.570313 364.820313 C 432.5625 365.191406 434.488281 365.933594 436.355469 367.046875 L 433.507813 371.757813 C 431.992188 370.929688 430.554688 370.359375 429.195313 370.042969 C 427.835938 369.730469 426.492188 369.574219 425.167969 369.574219 C 424.535156 369.574219 423.910156 369.644531 423.292969 369.789063 C 422.675781 369.929688 422.125 370.136719 421.632813 370.410156 C 421.144531 370.679688 420.75 371.035156 420.449219 371.480469 C 420.148438 371.921875 420 372.441406 420 373.042969 C 420 373.640625 420.164063 374.148438 420.496094 374.5625 C 420.828125 374.976563 421.308594 375.332031 421.949219 375.632813 C 422.582031 375.933594 423.347656 376.195313 424.25 376.425781 C 425.160156 376.652344 426.175781 376.882813 427.324219 377.109375 C 430.777344 377.792969 433.359375 378.835938 435.066406 380.234375 C 436.78125 381.632813 437.632813 383.488281 437.632813 385.800781 Z M 379.8125 377.964844 L 386.402344 377.964844 C 387.921875 377.964844 389.058594 377.601563 389.816406 376.867188 C 390.574219 376.140625 390.953125 375.195313 390.953125 374.046875 C 390.953125 372.898438 390.566406 371.949219 389.792969 371.207031 C 389.019531 370.457031 387.886719 370.085938 386.402344 370.085938 L 379.8125 370.085938 Z M 387.871094 364.820313 C 389.515625 364.820313 390.929688 365.097656 392.117188 365.65625 C 393.300781 366.210938 394.28125 366.933594 395.054688 367.820313 C 395.828125 368.703125 396.398438 369.695313 396.761719 370.792969 C 397.125 371.894531 397.304688 372.96875 397.304688 374.027344 C 397.304688 374.796875 397.1875 375.589844 396.949219 376.402344 C 396.714844 377.214844 396.367188 377.988281 395.90625 378.714844 C 395.449219 379.441406 394.886719 380.113281 394.226563 380.726563 C 393.5625 381.339844 392.804688 381.847656 391.949219 382.246094 L 397.828125 394.320313 L 390.8125 394.320313 C 390.683594 394.007813 390.488281 393.558594 390.21875 392.972656 C 389.949219 392.386719 389.648438 391.738281 389.320313 391.023438 C 388.988281 390.3125 388.640625 389.5625 388.277344 388.777344 C 387.910156 387.992188 387.5625 387.242188 387.230469 386.527344 C 386.902344 385.816406 386.601563 385.164063 386.332031 384.582031 C 386.0625 383.996094 385.851563 383.546875 385.691406 383.230469 L 379.8125 383.230469 L 379.8125 394.320313 L 373.320313 394.320313 L 373.320313 364.820313 Z M 333.84375 364.820313 L 356.363281 364.820313 L 356.363281 370.085938 L 340.339844 370.085938 L 340.339844 376.851563 L 354.039063 376.851563 L 354.039063 382.117188 L 340.339844 382.117188 L 340.339844 389.054688 L 356.363281 389.054688 L 356.363281 394.320313 L 333.84375 394.320313 Z M 304.75 385.671875 L 308.070313 375.183594 L 311.484375 364.820313 L 318.308594 364.820313 L 307.878906 394.320313 L 301.148438 394.320313 L 290.671875 364.820313 L 297.640625 364.820313 L 301.195313 375.480469 L 304.46875 385.671875 Z M 274.238281 364.820313 L 274.238281 394.320313 L 267.742188 394.320313 L 267.742188 364.820313 Z M 229.121094 375.738281 L 229.121094 394.320313 L 222.625 394.320313 L 222.625 364.820313 L 228.503906 364.820313 L 236.089844 374.925781 L 242.300781 383.488281 L 242.488281 383.488281 L 242.488281 364.820313 L 248.984375 364.820313 L 248.984375 394.320313 L 243.074219 394.320313 L 234.792969 383.1875 L 229.40625 375.738281 Z M 204.863281 384.945313 C 204.863281 386.542969 204.515625 387.941406 203.820313 389.140625 C 203.125 390.339844 202.203125 391.347656 201.03125 392.160156 C 199.863281 392.972656 198.527344 393.585938 197.011719 394 C 195.492188 394.414063 193.9375 394.621094 192.324219 394.621094 C 190.714844 394.621094 189.15625 394.421875 187.640625 394.023438 C 186.128906 393.621094 184.796875 393.023438 183.640625 392.222656 C 182.488281 391.425781 181.570313 390.433594 180.875 389.246094 C 180.179688 388.0625 179.832031 386.671875 179.832031 385.074219 L 179.832031 364.820313 L 186.328125 364.820313 L 186.328125 383.996094 C 186.328125 384.964844 186.5 385.785156 186.851563 386.457031 C 187.195313 387.128906 187.648438 387.683594 188.21875 388.113281 C 188.785156 388.542969 189.425781 388.855469 190.152344 389.054688 C 190.878906 389.253906 191.613281 389.355469 192.371094 389.355469 C 193.097656 389.355469 193.820313 389.253906 194.546875 389.054688 C 195.273438 388.855469 195.914063 388.542969 196.480469 388.113281 C 197.050781 387.683594 197.5 387.128906 197.847656 386.457031 C 198.195313 385.785156 198.371094 384.964844 198.371094 383.996094 L 198.371094 364.820313 L 204.863281 364.820313 Z M 204.863281 384.945313 "/>
<path style=" stroke:none;fill-rule:nonzero;fill:rgb(99.609375%,99.609375%,99.609375%);fill-opacity:1;" d="M 237.921875 632.652344 L 231.097656 632.652344 L 228.398438 625.792969 L 215.855469 625.792969 L 213.257813 632.652344 L 206.558594 632.652344 L 218.703125 602.511719 L 225.390625 602.511719 Z M 226.347656 620.695313 L 222 609.539063 L 217.777344 620.695313 Z M 246.972656 602.511719 L 253.304688 602.511719 L 253.304688 618.84375 C 253.304688 621.441406 253.382813 623.117188 253.539063 623.882813 C 253.804688 625.117188 254.441406 626.113281 255.445313 626.859375 C 256.457031 627.609375 257.832031 627.980469 259.578125 627.980469 C 261.347656 627.980469 262.6875 627.628906 263.589844 626.921875 C 264.492188 626.210938 265.03125 625.347656 265.214844 624.316406 C 265.394531 623.285156 265.488281 621.582031 265.488281 619.195313 L 265.488281 602.511719 L 271.824219 602.511719 L 271.824219 618.359375 C 271.824219 621.980469 271.65625 624.542969 271.3125 626.035156 C 270.972656 627.53125 270.34375 628.792969 269.429688 629.824219 C 268.519531 630.855469 267.296875 631.671875 265.765625 632.28125 C 264.230469 632.890625 262.234375 633.199219 259.769531 633.199219 C 256.789063 633.199219 254.535156 632.871094 253 632.203125 C 251.460938 631.539063 250.246094 630.675781 249.351563 629.609375 C 248.457031 628.542969 247.875 627.433594 247.589844 626.261719 C 247.175781 624.535156 246.972656 621.980469 246.972656 618.605469 Z M 291.226563 632.652344 L 291.226563 607.605469 L 281.964844 607.605469 L 281.964844 602.511719 L 306.773438 602.511719 L 306.773438 607.605469 L 297.558594 607.605469 L 297.558594 632.652344 Z M 316.554688 632.652344 L 316.554688 602.511719 L 322.886719 602.511719 L 322.886719 614.382813 L 335.203125 614.382813 L 335.203125 602.511719 L 341.535156 602.511719 L 341.535156 632.652344 L 335.203125 632.652344 L 335.203125 619.476563 L 322.886719 619.476563 L 322.886719 632.652344 Z M 353.777344 632.652344 L 353.777344 602.511719 L 376.925781 602.511719 L 376.925781 607.605469 L 360.109375 607.605469 L 360.109375 614.296875 L 375.746094 614.296875 L 375.746094 619.390625 L 360.109375 619.390625 L 360.109375 627.558594 L 377.535156 627.558594 L 377.535156 632.652344 Z M 388.589844 632.652344 L 388.589844 602.511719 L 394.71875 602.511719 L 407.589844 622.710938 L 407.589844 602.511719 L 413.441406 602.511719 L 413.441406 632.652344 L 407.117188 632.652344 L 394.441406 612.839844 L 394.441406 632.652344 Z M 432.84375 632.652344 L 432.84375 607.605469 L 423.585938 607.605469 L 423.585938 602.511719 L 448.394531 602.511719 L 448.394531 607.605469 L 439.175781 607.605469 L 439.175781 632.652344 Z M 457.953125 632.652344 L 457.953125 602.511719 L 464.285156 602.511719 L 464.285156 632.652344 Z M 495.992188 621.539063 L 502.105469 623.347656 C 501.167969 626.667969 499.601563 629.128906 497.417969 630.746094 C 495.234375 632.351563 492.46875 633.160156 489.113281 633.160156 C 484.957031 633.160156 481.542969 631.789063 478.863281 629.054688 C 476.191406 626.316406 474.851563 622.578125 474.851563 617.828125 C 474.851563 612.808594 476.199219 608.910156 478.882813 606.132813 C 481.570313 603.351563 485.109375 601.960938 489.492188 601.960938 C 493.320313 601.960938 496.429688 603.058594 498.816406 605.238281 C 500.242188 606.53125 501.304688 608.382813 502.019531 610.804688 L 495.773438 612.234375 C 495.402344 610.675781 494.628906 609.441406 493.457031 608.539063 C 492.277344 607.632813 490.851563 607.183594 489.179688 607.183594 C 486.855469 607.183594 484.96875 607.984375 483.527344 609.589844 C 482.082031 611.191406 481.359375 613.785156 481.359375 617.378906 C 481.359375 621.179688 482.074219 623.898438 483.492188 625.511719 C 484.917969 627.132813 486.769531 627.9375 489.046875 627.9375 C 490.726563 627.9375 492.175781 627.425781 493.386719 626.394531 C 494.59375 625.363281 495.46875 623.75 495.992188 621.539063 Z M 249.355469 666.015625 L 255.515625 665.425781 C 255.886719 667.410156 256.628906 668.863281 257.757813 669.796875 C 258.886719 670.730469 260.40625 671.195313 262.320313 671.195313 C 264.34375 671.195313 265.875 670.78125 266.898438 669.953125 C 267.925781 669.125 268.445313 668.15625 268.445313 667.046875 C 268.445313 666.332031 268.226563 665.726563 267.796875 665.222656 C 267.367188 664.722656 266.609375 664.289063 265.53125 663.925781 C 264.796875 663.671875 263.121094 663.238281 260.5 662.605469 C 257.132813 661.792969 254.765625 660.796875 253.402344 659.609375 C 251.488281 657.945313 250.535156 655.917969 250.535156 653.527344 C 250.535156 651.988281 250.988281 650.542969 251.882813 649.203125 C 252.785156 647.863281 254.082031 646.847656 255.777344 646.144531 C 257.472656 645.441406 259.511719 645.09375 261.914063 645.09375 C 265.824219 645.09375 268.769531 645.925781 270.742188 647.605469 C 272.722656 649.28125 273.757813 651.511719 273.859375 654.3125 L 267.527344 654.523438 C 267.257813 652.964844 266.683594 651.847656 265.800781 651.167969 C 264.921875 650.488281 263.59375 650.144531 261.835938 650.144531 C 260.015625 650.144531 258.585938 650.507813 257.5625 651.238281 C 256.898438 651.707031 256.5625 652.332031 256.5625 653.117188 C 256.5625 653.835938 256.875 654.445313 257.503906 654.949219 C 258.296875 655.601563 260.226563 656.277344 263.289063 656.976563 C 266.355469 657.671875 268.617188 658.402344 270.082031 659.144531 C 271.550781 659.898438 272.703125 660.914063 273.53125 662.210938 C 274.363281 663.511719 274.777344 665.109375 274.777344 667.011719 C 274.777344 668.738281 274.28125 670.359375 273.285156 671.867188 C 272.289063 673.375 270.882813 674.5 269.0625 675.226563 C 267.242188 675.964844 264.972656 676.328125 262.257813 676.328125 C 258.304688 676.328125 255.265625 675.453125 253.148438 673.691406 C 251.03125 671.9375 249.769531 669.375 249.355469 666.015625 Z M 305.832031 664.667969 L 311.949219 666.480469 C 311.007813 669.796875 309.445313 672.261719 307.261719 673.875 C 305.078125 675.480469 302.308594 676.289063 298.953125 676.289063 C 294.796875 676.289063 291.382813 674.917969 288.703125 672.183594 C 286.035156 669.445313 284.695313 665.707031 284.695313 660.957031 C 284.695313 655.941406 286.039063 652.039063 288.726563 649.261719 C 291.414063 646.480469 294.949219 645.09375 299.332031 645.09375 C 303.160156 645.09375 306.269531 646.1875 308.65625 648.367188 C 310.085938 649.660156 311.148438 651.511719 311.859375 653.933594 L 305.613281 655.363281 C 305.242188 653.808594 304.472656 652.570313 303.300781 651.667969 C 302.121094 650.761719 300.695313 650.3125 299.019531 650.3125 C 296.699219 650.3125 294.8125 651.113281 293.371094 652.71875 C 291.921875 654.320313 291.203125 656.914063 291.203125 660.507813 C 291.203125 664.308594 291.914063 667.027344 293.335938 668.640625 C 294.761719 670.261719 296.609375 671.066406 298.890625 671.066406 C 300.570313 671.066406 302.019531 670.554688 303.226563 669.523438 C 304.4375 668.492188 305.308594 666.878906 305.832031 664.667969 Z M 323.050781 675.78125 L 323.050781 645.640625 L 329.386719 645.640625 L 329.386719 657.511719 L 341.703125 657.511719 L 341.703125 645.640625 L 348.035156 645.640625 L 348.035156 675.78125 L 341.703125 675.78125 L 341.703125 662.605469 L 329.386719 662.605469 L 329.386719 675.78125 Z M 358.964844 660.894531 C 358.964844 657.820313 359.445313 655.238281 360.398438 653.148438 C 361.105469 651.609375 362.078125 650.226563 363.308594 649.007813 C 364.539063 647.785156 365.886719 646.882813 367.351563 646.285156 C 369.300781 645.492188 371.550781 645.09375 374.097656 645.09375 C 378.714844 645.09375 382.398438 646.472656 385.171875 649.230469 C 387.9375 651.996094 389.320313 655.835938 389.320313 660.753906 C 389.320313 665.628906 387.945313 669.445313 385.199219 672.195313 C 382.457031 674.953125 378.777344 676.328125 374.1875 676.328125 C 369.535156 676.328125 365.828125 674.960938 363.085938 672.21875 C 360.339844 669.480469 358.964844 665.707031 358.964844 660.894531 Z M 365.472656 660.691406 C 365.472656 664.105469 366.292969 666.695313 367.933594 668.464844 C 369.570313 670.226563 371.652344 671.109375 374.171875 671.109375 C 376.695313 671.109375 378.765625 670.230469 380.386719 668.484375 C 382.003906 666.730469 382.8125 664.105469 382.8125 660.605469 C 382.8125 657.148438 382.027344 654.566406 380.445313 652.867188 C 378.875 651.160156 376.785156 650.3125 374.171875 650.3125 C 371.566406 650.3125 369.460938 651.175781 367.867188 652.894531 C 366.273438 654.621094 365.472656 657.21875 365.472656 660.691406 Z M 398.617188 660.894531 C 398.617188 657.820313 399.097656 655.238281 400.050781 653.148438 C 400.757813 651.609375 401.734375 650.226563 402.964844 649.007813 C 404.195313 647.785156 405.539063 646.882813 407.003906 646.285156 C 408.957031 645.492188 411.203125 645.09375 413.753906 645.09375 C 418.367188 645.09375 422.050781 646.472656 424.824219 649.230469 C 427.589844 651.996094 428.972656 655.835938 428.972656 660.753906 C 428.972656 665.628906 427.597656 669.445313 424.855469 672.195313 C 422.109375 674.953125 418.433594 676.328125 413.839844 676.328125 C 409.1875 676.328125 405.484375 674.960938 402.738281 672.21875 C 399.996094 669.480469 398.617188 665.707031 398.617188 660.894531 Z M 405.125 660.691406 C 405.125 664.105469 405.949219 666.695313 407.585938 668.464844 C 409.222656 670.226563 411.304688 671.109375 413.824219 671.109375 C 416.351563 671.109375 418.417969 670.230469 420.042969 668.484375 C 421.65625 666.730469 422.464844 664.105469 422.464844 660.605469 C 422.464844 657.148438 421.679688 654.566406 420.101563 652.867188 C 418.527344 651.160156 416.4375 650.3125 413.824219 650.3125 C 411.21875 650.3125 409.117188 651.175781 407.519531 652.894531 C 405.925781 654.621094 405.125 657.21875 405.125 660.691406 Z M 439.757813 675.78125 L 439.757813 645.890625 L 446.089844 645.890625 L 446.089844 670.6875 L 461.769531 670.6875 L 461.769531 675.78125 Z M 439.757813 675.78125 "/>
<path style=" stroke:none;fill-rule:nonzero;fill:rgb(10.978699%,10.5896%,9.01947%);fill-opacity:1;" d="M 221.847656 500.410156 L 224.503906 500.148438 C 224.664063 501.035156 224.984375 501.683594 225.472656 502.101563 C 225.957031 502.519531 226.613281 502.726563 227.4375 502.726563 C 228.3125 502.726563 228.96875 502.542969 229.414063 502.171875 C 229.855469 501.800781 230.078125 501.367188 230.078125 500.871094 C 230.078125 500.550781 229.984375 500.28125 229.800781 500.054688 C 229.613281 499.832031 229.289063 499.640625 228.824219 499.476563 C 228.507813 499.363281 227.785156 499.167969 226.652344 498.886719 C 225.199219 498.523438 224.179688 498.074219 223.59375 497.546875 C 222.769531 496.800781 222.355469 495.894531 222.355469 494.824219 C 222.355469 494.136719 222.550781 493.492188 222.9375 492.890625 C 223.328125 492.292969 223.886719 491.835938 224.617188 491.523438 C 225.347656 491.207031 226.226563 491.050781 227.261719 491.050781 C 228.949219 491.050781 230.21875 491.425781 231.070313 492.175781 C 231.921875 492.925781 232.371094 493.921875 232.414063 495.175781 L 229.683594 495.269531 C 229.566406 494.574219 229.320313 494.074219 228.9375 493.769531 C 228.558594 493.464844 227.988281 493.3125 227.226563 493.3125 C 226.445313 493.3125 225.828125 493.476563 225.386719 493.800781 C 225.101563 494.011719 224.957031 494.289063 224.957031 494.640625 C 224.957031 494.960938 225.089844 495.234375 225.359375 495.460938 C 225.703125 495.753906 226.535156 496.054688 227.855469 496.367188 C 229.175781 496.679688 230.152344 497.003906 230.785156 497.339844 C 231.417969 497.675781 231.914063 498.128906 232.273438 498.710938 C 232.628906 499.289063 232.808594 500.007813 232.808594 500.855469 C 232.808594 501.628906 232.59375 502.355469 232.164063 503.027344 C 231.734375 503.703125 231.128906 504.207031 230.34375 504.53125 C 229.558594 504.863281 228.582031 505.023438 227.410156 505.023438 C 225.707031 505.023438 224.398438 504.632813 223.484375 503.84375 C 222.570313 503.058594 222.027344 501.914063 221.847656 500.410156 Z M 237.125 504.78125 L 237.125 491.296875 L 239.855469 491.296875 L 239.855469 504.78125 Z M 244.542969 504.78125 L 244.542969 491.296875 L 247.1875 491.296875 L 252.734375 500.332031 L 252.734375 491.296875 L 255.257813 491.296875 L 255.257813 504.78125 L 252.53125 504.78125 L 247.066406 495.917969 L 247.066406 504.78125 Z M 268.859375 499.808594 L 271.496094 500.617188 C 271.09375 502.101563 270.417969 503.203125 269.476563 503.925781 C 268.535156 504.644531 267.339844 505.007813 265.894531 505.007813 C 264.101563 505.007813 262.628906 504.394531 261.476563 503.171875 C 260.324219 501.945313 259.746094 500.273438 259.746094 498.148438 C 259.746094 495.90625 260.328125 494.160156 261.484375 492.917969 C 262.644531 491.671875 264.167969 491.050781 266.058594 491.050781 C 267.707031 491.050781 269.046875 491.542969 270.078125 492.515625 C 270.695313 493.09375 271.152344 493.921875 271.460938 495.007813 L 268.765625 495.648438 C 268.605469 494.949219 268.273438 494.398438 267.769531 493.992188 C 267.257813 493.585938 266.644531 493.386719 265.921875 493.386719 C 264.921875 493.386719 264.109375 493.746094 263.488281 494.464844 C 262.863281 495.179688 262.550781 496.339844 262.550781 497.945313 C 262.550781 499.648438 262.859375 500.863281 263.472656 501.585938 C 264.085938 502.308594 264.882813 502.671875 265.867188 502.671875 C 266.589844 502.671875 267.214844 502.441406 267.738281 501.980469 C 268.257813 501.519531 268.632813 500.796875 268.859375 499.808594 Z M 275.929688 504.78125 L 275.929688 491.296875 L 285.910156 491.296875 L 285.910156 493.574219 L 278.660156 493.574219 L 278.660156 496.570313 L 285.398438 496.570313 L 285.398438 498.847656 L 278.660156 498.847656 L 278.660156 502.5 L 286.171875 502.5 L 286.171875 504.78125 Z M 275.929688 504.78125 "/>
<path style=" stroke:none;fill-rule:nonzero;fill:rgb(10.978699%,10.5896%,9.01947%);fill-opacity:1;" d="M 443.125 503.28125 L 443.125 506.148438 L 431.894531 506.148438 C 432.015625 505.054688 432.378906 504.023438 432.988281 503.050781 C 433.59375 502.074219 434.796875 500.78125 436.585938 499.167969 C 438.03125 497.863281 438.914063 496.980469 439.242188 496.515625 C 439.679688 495.878906 439.902344 495.246094 439.902344 494.617188 C 439.902344 493.921875 439.714844 493.394531 439.328125 493.019531 C 438.945313 492.648438 438.417969 492.464844 437.742188 492.464844 C 437.074219 492.464844 436.542969 492.660156 436.148438 493.050781 C 435.753906 493.4375 435.527344 494.085938 435.46875 494.992188 L 432.269531 494.683594 C 432.457031 492.976563 433.054688 491.75 434.058594 491.003906 C 435.0625 490.261719 436.316406 489.890625 437.820313 489.890625 C 439.472656 489.890625 440.769531 490.320313 441.714844 491.183594 C 442.65625 492.046875 443.125 493.117188 443.125 494.402344 C 443.125 495.132813 442.988281 495.824219 442.722656 496.488281 C 442.453125 497.144531 442.023438 497.835938 441.4375 498.554688 C 441.050781 499.039063 440.347656 499.726563 439.335938 500.625 C 438.320313 501.527344 437.675781 502.121094 437.410156 502.417969 C 437.136719 502.710938 436.917969 503 436.75 503.28125 Z M 452.003906 489.890625 C 453.625 489.890625 454.890625 490.449219 455.804688 491.570313 C 456.890625 492.894531 457.433594 495.097656 457.433594 498.167969 C 457.433594 501.234375 456.886719 503.441406 455.792969 504.78125 C 454.886719 505.886719 453.625 506.441406 452.003906 506.441406 C 450.378906 506.441406 449.066406 505.835938 448.070313 504.625 C 447.074219 503.410156 446.574219 501.246094 446.574219 498.140625 C 446.574219 495.085938 447.125 492.890625 448.21875 491.550781 C 449.125 490.441406 450.386719 489.890625 452.003906 489.890625 Z M 452.003906 492.464844 C 451.625 492.464844 451.28125 492.585938 450.984375 492.824219 C 450.6875 493.0625 450.453125 493.492188 450.289063 494.113281 C 450.070313 494.914063 449.960938 496.269531 449.960938 498.167969 C 449.960938 500.074219 450.058594 501.378906 450.253906 502.089844 C 450.449219 502.800781 450.695313 503.277344 450.988281 503.511719 C 451.285156 503.75 451.625 503.867188 452.003906 503.867188 C 452.386719 503.867188 452.730469 503.746094 453.03125 503.503906 C 453.324219 503.269531 453.558594 502.839844 453.722656 502.21875 C 453.941406 501.425781 454.050781 500.074219 454.050781 498.167969 C 454.050781 496.269531 453.953125 494.960938 453.757813 494.25 C 453.5625 493.539063 453.316406 493.0625 453.019531 492.824219 C 452.726563 492.585938 452.386719 492.464844 452.003906 492.464844 Z M 466.289063 489.890625 C 467.910156 489.890625 469.175781 490.449219 470.089844 491.570313 C 471.175781 492.894531 471.71875 495.097656 471.71875 498.167969 C 471.71875 501.234375 471.171875 503.441406 470.078125 504.78125 C 469.171875 505.886719 467.910156 506.441406 466.289063 506.441406 C 464.664063 506.441406 463.351563 505.835938 462.355469 504.625 C 461.359375 503.410156 460.863281 501.246094 460.863281 498.140625 C 460.863281 495.085938 461.410156 492.890625 462.503906 491.550781 C 463.410156 490.441406 464.671875 489.890625 466.289063 489.890625 Z M 466.289063 492.464844 C 465.910156 492.464844 465.566406 492.585938 465.269531 492.824219 C 464.972656 493.0625 464.738281 493.492188 464.574219 494.113281 C 464.355469 494.914063 464.246094 496.269531 464.246094 498.167969 C 464.246094 500.074219 464.34375 501.378906 464.539063 502.089844 C 464.734375 502.800781 464.980469 503.277344 465.273438 503.511719 C 465.570313 503.75 465.910156 503.867188 466.289063 503.867188 C 466.671875 503.867188 467.015625 503.746094 467.316406 503.503906 C 467.609375 503.269531 467.84375 502.839844 468.007813 502.21875 C 468.226563 501.425781 468.335938 500.074219 468.335938 498.167969 C 468.335938 496.269531 468.238281 494.960938 468.042969 494.25 C 467.847656 493.539063 467.601563 493.0625 467.304688 492.824219 C 467.011719 492.585938 466.671875 492.464844 466.289063 492.464844 Z M 475.054688 501.859375 L 478.160156 501.496094 C 478.257813 502.265625 478.519531 502.851563 478.953125 503.257813 C 479.386719 503.664063 479.90625 503.867188 480.519531 503.867188 C 481.175781 503.867188 481.726563 503.621094 482.179688 503.136719 C 482.628906 502.652344 482.851563 501.996094 482.851563 501.167969 C 482.851563 500.390625 482.640625 499.769531 482.207031 499.3125 C 481.773438 498.859375 481.25 498.628906 480.625 498.628906 C 480.21875 498.628906 479.730469 498.707031 479.164063 498.863281 L 479.519531 496.347656 C 480.382813 496.371094 481.039063 496.1875 481.496094 495.796875 C 481.949219 495.414063 482.175781 494.898438 482.175781 494.253906 C 482.175781 493.710938 482.007813 493.277344 481.671875 492.949219 C 481.339844 492.625 480.894531 492.464844 480.339844 492.464844 C 479.789063 492.464844 479.324219 492.648438 478.9375 493.015625 C 478.546875 493.386719 478.316406 493.921875 478.230469 494.632813 L 475.289063 494.144531 C 475.492188 493.160156 475.800781 492.375 476.21875 491.78125 C 476.628906 491.195313 477.210938 490.730469 477.949219 490.394531 C 478.6875 490.058594 479.519531 489.890625 480.441406 489.890625 C 482.011719 489.890625 483.273438 490.375 484.222656 491.347656 C 485.003906 492.148438 485.398438 493.050781 485.398438 494.054688 C 485.398438 495.476563 484.597656 496.617188 482.988281 497.464844 C 483.945313 497.664063 484.710938 498.109375 485.285156 498.800781 C 485.855469 499.492188 486.144531 500.328125 486.144531 501.308594 C 486.144531 502.726563 485.609375 503.9375 484.539063 504.941406 C 483.46875 505.941406 482.136719 506.441406 480.539063 506.441406 C 479.03125 506.441406 477.777344 506.019531 476.785156 505.171875 C 475.789063 504.328125 475.214844 503.226563 475.054688 501.859375 "/>
<path style=" stroke:none;fill-rule:evenodd;fill:rgb(10.978699%,10.5896%,9.01947%);fill-opacity:1;" d="M 315.441406 430.242188 L 315.441406 416.164063 L 407.78125 416.164063 L 407.78125 495.949219 C 407.78125 514.6875 396.582031 531.332031 380.007813 538.667969 C 380.957031 530.460938 381.003906 528.199219 381.003906 521.78125 C 388.921875 515.71875 393.707031 506.320313 393.707031 495.949219 L 393.707031 430.242188 Z M 346.46875 540.359375 C 327.71875 534.222656 314.285156 516.492188 314.285156 495.949219 L 314.285156 473.765625 L 328.359375 473.765625 C 328.359375 489.5 325.671875 506.792969 337.929688 519.054688 C 341.257813 522.382813 345.246094 524.976563 349.757813 526.625 C 349.835938 533.632813 347.929688 537.421875 346.46875 540.359375 "/>
<path style=" stroke:none;fill-rule:evenodd;fill:rgb(10.978699%,10.5896%,9.01947%);fill-opacity:1;" d="M 292.714844 448.414063 L 372.417969 448.414063 L 372.417969 528.199219 C 372.417969 541.109375 367.183594 552.792969 358.722656 561.253906 C 350.261719 569.714844 338.574219 574.949219 325.667969 574.949219 C 312.761719 574.949219 301.074219 569.714844 292.613281 561.253906 C 284.15625 552.792969 278.917969 541.109375 278.917969 528.199219 L 292.996094 528.199219 C 292.996094 537.222656 296.652344 545.390625 302.566406 551.304688 C 308.476563 557.214844 316.648438 560.875 325.667969 560.875 C 334.6875 560.875 342.859375 557.214844 348.769531 551.304688 C 354.683594 545.390625 358.339844 537.222656 358.339844 528.199219 L 358.339844 462.492188 L 292.714844 462.492188 Z M 292.714844 448.414063 "/>
</g>
</svg>
